# xmcd
#
# Track frame offsets:
#	150
#	18134
#	35798
#	51567
#	68384
#	82810
#	97237
#	113076
#	128430
#	144354
#	160047
#	173044
#	186486
#	202164
#	216345
#	230976
#	245831
#	263234
#	280196
#	292069
#
# Disc length: 4072 seconds
#
# Revision: 1
# Processed by: cddbd v1.5.2PL0 Copyright (c) Steve Scherf et al.
# Submitted via: audiograbber 1.83.01
#
DISCID=320fe614
DTITLE=Various Artist - Euro Exclusive 0713 - March 30, 2007
DYEAR=2007
DGENRE=
TTITLE0=TRAVIS - CLOSER
TTITLE1=MANIC STREET PREACHERS feat.NINA PERSSON - YOUR LOVE ALONE IS NOT ENOUG
TTITLE1=H
TTITLE2=BEVERLEY KNIGHT - NO MAN'S LAND
TTITLE3=THE PROCLAIMERS feat.BRIAN POTTER and ANDY PIPKIN - (I'M GONNA BE) 500 MI
TTITLE3=LES
TTITLE4=AMP FIDDLER feat. CORRINE BAILEY RAE - IF I DON'T (RADIO)
TTITLE5=MACY GRAY feat. NATALIE COLE - FINALLY MADE ME HAPPY
TTITLE6=ASH - YOU CAN HAVE IT ALL
TTITLE7=SUNBLOCK feat. SANDY - BABY BABY
TTITLE8=MADELEINE PEYROUX - ONCE IN A WHILE
TTITLE9=GRACE - WONDERFUL
TTITLE10=THERESE - FEELIN' ME (DIGITAL DOG RADIO EDIT)
TTITLE11=ATRIUM - IN LOVE WITH YOU
TTITLE12=PATRICK WOLF - THE MAGIC POSITION (RADIO EDIT)
TTITLE13=JEAN MICHEL JARRE - TEO and TEA (RADIO EDIT VOCAL)
TTITLE14=SEAMUS HAJI feat. KAY KAY - LAST NIGHT A DJ SAVED MY LIFE
TTITLE15=THE STOOGES - MY IDEA OF FUN
TTITLE16=THE ALIENS - SETTING SUN
TTITLE17=LUKE TOMS - PEACE BY MYSELF
TTITLE18=ROBYN - KONICHIWA BITCHES (CLEAN VERSION)
TTITLE19=THE WURZELS feat. TONY BLACKBURN - I AM A CIDER DRINKER (2007)
EXTD=
EXTT0=
EXTT1=
EXTT2=
EXTT3=
EXTT4=
EXTT5=
EXTT6=
EXTT7=
EXTT8=
EXTT9=
EXTT10=
EXTT11=
EXTT12=
EXTT13=
EXTT14=
EXTT15=
EXTT16=
EXTT17=
EXTT18=
EXTT19=
PLAYORDER=
